<mxfile host="Electron" agent="Mozilla/5.0 (Windows NT 10.0; Win64; x64) AppleWebKit/537.36 (KHTML, like Gecko) draw.io/28.1.2 Chrome/138.0.7204.243 Electron/37.4.0 Safari/537.36" version="28.1.2">
  <diagram name="Страница — 1" id="jnrc5RC17uL5okMxQ9-9">
    <mxGraphModel dx="2722" dy="1200" grid="1" gridSize="10" guides="1" tooltips="1" connect="1" arrows="1" fold="1" page="1" pageScale="1" pageWidth="827" pageHeight="1169" math="0" shadow="0">
      <root>
        <mxCell id="0" />
        <mxCell id="1" parent="0" />
        <mxCell id="enXsGFHNMzW8swjhAQXI-1" value="SWOT анализ" style="shape=cylinder3;whiteSpace=wrap;html=1;boundedLbl=1;backgroundOutline=1;size=15;" vertex="1" parent="1">
          <mxGeometry x="130" y="90" width="110" height="80" as="geometry" />
        </mxCell>
        <mxCell id="enXsGFHNMzW8swjhAQXI-2" value="Запуск бизнеса" style="strokeWidth=2;html=1;shape=mxgraph.flowchart.terminator;whiteSpace=wrap;" vertex="1" parent="1">
          <mxGeometry x="550" y="90" width="150" height="40" as="geometry" />
        </mxCell>
        <mxCell id="enXsGFHNMzW8swjhAQXI-7" style="edgeStyle=orthogonalEdgeStyle;rounded=0;orthogonalLoop=1;jettySize=auto;html=1;exitX=0.75;exitY=1;exitDx=0;exitDy=0;entryX=0.5;entryY=0;entryDx=0;entryDy=0;" edge="1" parent="1" source="enXsGFHNMzW8swjhAQXI-3" target="enXsGFHNMzW8swjhAQXI-4">
          <mxGeometry relative="1" as="geometry" />
        </mxCell>
        <mxCell id="enXsGFHNMzW8swjhAQXI-3" value="&lt;b&gt;BP1:Стратегическое планирование&lt;/b&gt;" style="rounded=0;whiteSpace=wrap;html=1;" vertex="1" parent="1">
          <mxGeometry x="380" y="160" width="200" height="60" as="geometry" />
        </mxCell>
        <mxCell id="enXsGFHNMzW8swjhAQXI-15" style="edgeStyle=orthogonalEdgeStyle;rounded=0;orthogonalLoop=1;jettySize=auto;html=1;exitX=0;exitY=0.5;exitDx=0;exitDy=0;entryX=0.5;entryY=0;entryDx=0;entryDy=0;" edge="1" parent="1" source="enXsGFHNMzW8swjhAQXI-4" target="enXsGFHNMzW8swjhAQXI-14">
          <mxGeometry relative="1" as="geometry" />
        </mxCell>
        <mxCell id="enXsGFHNMzW8swjhAQXI-25" style="edgeStyle=orthogonalEdgeStyle;rounded=0;orthogonalLoop=1;jettySize=auto;html=1;exitX=0.5;exitY=1;exitDx=0;exitDy=0;" edge="1" parent="1" source="enXsGFHNMzW8swjhAQXI-4">
          <mxGeometry relative="1" as="geometry">
            <mxPoint x="560" y="580" as="targetPoint" />
          </mxGeometry>
        </mxCell>
        <mxCell id="enXsGFHNMzW8swjhAQXI-26" style="edgeStyle=orthogonalEdgeStyle;rounded=0;orthogonalLoop=1;jettySize=auto;html=1;exitX=1;exitY=0.5;exitDx=0;exitDy=0;entryX=0.5;entryY=0;entryDx=0;entryDy=0;" edge="1" parent="1" source="enXsGFHNMzW8swjhAQXI-4" target="enXsGFHNMzW8swjhAQXI-20">
          <mxGeometry relative="1" as="geometry" />
        </mxCell>
        <mxCell id="enXsGFHNMzW8swjhAQXI-4" value="И" style="rhombus;whiteSpace=wrap;html=1;" vertex="1" parent="1">
          <mxGeometry x="540" y="270" width="40" height="40" as="geometry" />
        </mxCell>
        <mxCell id="enXsGFHNMzW8swjhAQXI-5" style="edgeStyle=orthogonalEdgeStyle;rounded=0;orthogonalLoop=1;jettySize=auto;html=1;exitX=0.11;exitY=0.89;exitDx=0;exitDy=0;exitPerimeter=0;entryX=0.914;entryY=0.027;entryDx=0;entryDy=0;entryPerimeter=0;" edge="1" parent="1" source="enXsGFHNMzW8swjhAQXI-2" target="enXsGFHNMzW8swjhAQXI-3">
          <mxGeometry relative="1" as="geometry" />
        </mxCell>
        <mxCell id="enXsGFHNMzW8swjhAQXI-6" value="" style="endArrow=block;dashed=1;endFill=0;endSize=12;html=1;rounded=0;entryX=0;entryY=0;entryDx=0;entryDy=0;" edge="1" parent="1" target="enXsGFHNMzW8swjhAQXI-3">
          <mxGeometry width="160" relative="1" as="geometry">
            <mxPoint x="240" y="130" as="sourcePoint" />
            <mxPoint x="400" y="130" as="targetPoint" />
          </mxGeometry>
        </mxCell>
        <mxCell id="enXsGFHNMzW8swjhAQXI-9" value="" style="endArrow=none;html=1;rounded=0;" edge="1" parent="1">
          <mxGeometry width="50" height="50" relative="1" as="geometry">
            <mxPoint x="320" y="350" as="sourcePoint" />
            <mxPoint x="320" y="40" as="targetPoint" />
          </mxGeometry>
        </mxCell>
        <mxCell id="enXsGFHNMzW8swjhAQXI-10" value="" style="endArrow=none;html=1;rounded=0;" edge="1" parent="1">
          <mxGeometry width="50" height="50" relative="1" as="geometry">
            <mxPoint x="740" y="350" as="sourcePoint" />
            <mxPoint x="740" y="40" as="targetPoint" />
          </mxGeometry>
        </mxCell>
        <mxCell id="enXsGFHNMzW8swjhAQXI-11" value="" style="endArrow=none;html=1;rounded=0;" edge="1" parent="1">
          <mxGeometry width="50" height="50" relative="1" as="geometry">
            <mxPoint x="740" y="350" as="sourcePoint" />
            <mxPoint x="320" y="350" as="targetPoint" />
          </mxGeometry>
        </mxCell>
        <mxCell id="enXsGFHNMzW8swjhAQXI-12" value="" style="endArrow=none;html=1;rounded=0;" edge="1" parent="1">
          <mxGeometry width="50" height="50" relative="1" as="geometry">
            <mxPoint x="740" y="40" as="sourcePoint" />
            <mxPoint x="320" y="40" as="targetPoint" />
          </mxGeometry>
        </mxCell>
        <mxCell id="enXsGFHNMzW8swjhAQXI-13" value="Стратегический уровень CEO" style="text;html=1;align=center;verticalAlign=middle;whiteSpace=wrap;rounded=0;" vertex="1" parent="1">
          <mxGeometry x="340" y="60" width="180" height="60" as="geometry" />
        </mxCell>
        <mxCell id="enXsGFHNMzW8swjhAQXI-28" style="edgeStyle=orthogonalEdgeStyle;rounded=0;orthogonalLoop=1;jettySize=auto;html=1;exitX=0.25;exitY=1;exitDx=0;exitDy=0;entryX=0.5;entryY=0;entryDx=0;entryDy=0;" edge="1" parent="1" source="enXsGFHNMzW8swjhAQXI-14" target="enXsGFHNMzW8swjhAQXI-27">
          <mxGeometry relative="1" as="geometry" />
        </mxCell>
        <mxCell id="enXsGFHNMzW8swjhAQXI-14" value="BP2: Бизнес модель&lt;div&gt;Canvas&lt;/div&gt;" style="rounded=0;whiteSpace=wrap;html=1;" vertex="1" parent="1">
          <mxGeometry x="310" y="430" width="200" height="60" as="geometry" />
        </mxCell>
        <mxCell id="enXsGFHNMzW8swjhAQXI-16" value="BP3: Маркетинг&lt;br&gt;1000 лидов" style="rounded=0;whiteSpace=wrap;html=1;" vertex="1" parent="1">
          <mxGeometry x="460" y="585" width="200" height="60" as="geometry" />
        </mxCell>
        <mxCell id="enXsGFHNMzW8swjhAQXI-17" value="Лиды" style="shape=cylinder3;whiteSpace=wrap;html=1;boundedLbl=1;backgroundOutline=1;size=15;" vertex="1" parent="1">
          <mxGeometry x="580" y="430" width="110" height="80" as="geometry" />
        </mxCell>
        <mxCell id="enXsGFHNMzW8swjhAQXI-18" value="" style="endArrow=block;dashed=1;endFill=0;endSize=12;html=1;rounded=0;entryX=0.874;entryY=-0.017;entryDx=0;entryDy=0;entryPerimeter=0;exitX=0.5;exitY=1;exitDx=0;exitDy=0;exitPerimeter=0;" edge="1" parent="1" source="enXsGFHNMzW8swjhAQXI-17" target="enXsGFHNMzW8swjhAQXI-16">
          <mxGeometry width="160" relative="1" as="geometry">
            <mxPoint x="827" y="370" as="sourcePoint" />
            <mxPoint x="967" y="400" as="targetPoint" />
          </mxGeometry>
        </mxCell>
        <mxCell id="enXsGFHNMzW8swjhAQXI-47" style="edgeStyle=orthogonalEdgeStyle;rounded=0;orthogonalLoop=1;jettySize=auto;html=1;exitX=0.75;exitY=1;exitDx=0;exitDy=0;entryX=1;entryY=0;entryDx=0;entryDy=0;" edge="1" parent="1" source="enXsGFHNMzW8swjhAQXI-20" target="enXsGFHNMzW8swjhAQXI-22">
          <mxGeometry relative="1" as="geometry" />
        </mxCell>
        <mxCell id="enXsGFHNMzW8swjhAQXI-20" value="BP5: Разработка&lt;br&gt;8-12 месяцев" style="rounded=0;whiteSpace=wrap;html=1;" vertex="1" parent="1">
          <mxGeometry x="680" y="560" width="200" height="60" as="geometry" />
        </mxCell>
        <mxCell id="enXsGFHNMzW8swjhAQXI-22" value="Цикл" style="ellipse;whiteSpace=wrap;html=1;aspect=fixed;" vertex="1" parent="1">
          <mxGeometry x="740" y="640" width="80" height="80" as="geometry" />
        </mxCell>
        <mxCell id="enXsGFHNMzW8swjhAQXI-32" style="edgeStyle=orthogonalEdgeStyle;rounded=0;orthogonalLoop=1;jettySize=auto;html=1;exitX=0;exitY=0.5;exitDx=0;exitDy=0;entryX=1;entryY=0.5;entryDx=0;entryDy=0;" edge="1" parent="1" source="enXsGFHNMzW8swjhAQXI-27" target="enXsGFHNMzW8swjhAQXI-30">
          <mxGeometry relative="1" as="geometry" />
        </mxCell>
        <mxCell id="enXsGFHNMzW8swjhAQXI-27" value="ИЛИ" style="rhombus;whiteSpace=wrap;html=1;" vertex="1" parent="1">
          <mxGeometry x="340" y="570" width="40" height="40" as="geometry" />
        </mxCell>
        <mxCell id="enXsGFHNMzW8swjhAQXI-56" style="edgeStyle=orthogonalEdgeStyle;rounded=0;orthogonalLoop=1;jettySize=auto;html=1;exitX=0;exitY=0.5;exitDx=0;exitDy=0;entryX=0.5;entryY=1;entryDx=0;entryDy=0;" edge="1" parent="1" source="enXsGFHNMzW8swjhAQXI-29" target="enXsGFHNMzW8swjhAQXI-54">
          <mxGeometry relative="1" as="geometry" />
        </mxCell>
        <mxCell id="enXsGFHNMzW8swjhAQXI-29" value="BP4: Продажи" style="rounded=0;whiteSpace=wrap;html=1;" vertex="1" parent="1">
          <mxGeometry x="270" y="680" width="200" height="60" as="geometry" />
        </mxCell>
        <mxCell id="enXsGFHNMzW8swjhAQXI-55" style="edgeStyle=orthogonalEdgeStyle;rounded=0;orthogonalLoop=1;jettySize=auto;html=1;exitX=0.157;exitY=0.006;exitDx=0;exitDy=0;entryX=1;entryY=0.5;entryDx=0;entryDy=0;exitPerimeter=0;" edge="1" parent="1" source="enXsGFHNMzW8swjhAQXI-30" target="enXsGFHNMzW8swjhAQXI-54">
          <mxGeometry relative="1" as="geometry" />
        </mxCell>
        <mxCell id="enXsGFHNMzW8swjhAQXI-30" value="BP6: Патентование&lt;div&gt;&lt;br&gt;&lt;/div&gt;" style="rounded=0;whiteSpace=wrap;html=1;" vertex="1" parent="1">
          <mxGeometry x="85" y="560" width="200" height="60" as="geometry" />
        </mxCell>
        <mxCell id="enXsGFHNMzW8swjhAQXI-31" style="edgeStyle=orthogonalEdgeStyle;rounded=0;orthogonalLoop=1;jettySize=auto;html=1;exitX=0.5;exitY=1;exitDx=0;exitDy=0;entryX=0.45;entryY=0;entryDx=0;entryDy=0;entryPerimeter=0;" edge="1" parent="1" source="enXsGFHNMzW8swjhAQXI-27" target="enXsGFHNMzW8swjhAQXI-29">
          <mxGeometry relative="1" as="geometry" />
        </mxCell>
        <mxCell id="enXsGFHNMzW8swjhAQXI-36" style="edgeStyle=orthogonalEdgeStyle;rounded=0;orthogonalLoop=1;jettySize=auto;html=1;exitX=0;exitY=0.5;exitDx=0;exitDy=0;exitPerimeter=0;entryX=1;entryY=0.5;entryDx=0;entryDy=0;" edge="1" parent="1" source="enXsGFHNMzW8swjhAQXI-33" target="enXsGFHNMzW8swjhAQXI-29">
          <mxGeometry relative="1" as="geometry" />
        </mxCell>
        <mxCell id="enXsGFHNMzW8swjhAQXI-33" value="Контракты" style="shape=cylinder3;whiteSpace=wrap;html=1;boundedLbl=1;backgroundOutline=1;size=15;" vertex="1" parent="1">
          <mxGeometry x="520" y="670" width="110" height="80" as="geometry" />
        </mxCell>
        <mxCell id="enXsGFHNMzW8swjhAQXI-35" style="edgeStyle=orthogonalEdgeStyle;rounded=0;orthogonalLoop=1;jettySize=auto;html=1;exitX=0.5;exitY=1;exitDx=0;exitDy=0;exitPerimeter=0;entryX=0.5;entryY=0;entryDx=0;entryDy=0;" edge="1" parent="1" source="enXsGFHNMzW8swjhAQXI-34" target="enXsGFHNMzW8swjhAQXI-30">
          <mxGeometry relative="1" as="geometry" />
        </mxCell>
        <mxCell id="enXsGFHNMzW8swjhAQXI-34" value="Патент" style="shape=cylinder3;whiteSpace=wrap;html=1;boundedLbl=1;backgroundOutline=1;size=15;" vertex="1" parent="1">
          <mxGeometry x="130" y="430" width="110" height="80" as="geometry" />
        </mxCell>
        <mxCell id="enXsGFHNMzW8swjhAQXI-48" style="edgeStyle=orthogonalEdgeStyle;rounded=0;orthogonalLoop=1;jettySize=auto;html=1;exitX=0;exitY=0;exitDx=0;exitDy=0;entryX=0.36;entryY=1.004;entryDx=0;entryDy=0;entryPerimeter=0;" edge="1" parent="1" source="enXsGFHNMzW8swjhAQXI-22" target="enXsGFHNMzW8swjhAQXI-20">
          <mxGeometry relative="1" as="geometry" />
        </mxCell>
        <mxCell id="enXsGFHNMzW8swjhAQXI-49" value="" style="endArrow=none;html=1;rounded=0;" edge="1" parent="1">
          <mxGeometry width="50" height="50" relative="1" as="geometry">
            <mxPoint x="960" y="400" as="sourcePoint" />
            <mxPoint x="40" y="400" as="targetPoint" />
          </mxGeometry>
        </mxCell>
        <mxCell id="enXsGFHNMzW8swjhAQXI-50" value="" style="endArrow=none;html=1;rounded=0;" edge="1" parent="1">
          <mxGeometry width="50" height="50" relative="1" as="geometry">
            <mxPoint x="960" y="800" as="sourcePoint" />
            <mxPoint x="40" y="800" as="targetPoint" />
          </mxGeometry>
        </mxCell>
        <mxCell id="enXsGFHNMzW8swjhAQXI-51" value="" style="endArrow=none;html=1;rounded=0;" edge="1" parent="1">
          <mxGeometry width="50" height="50" relative="1" as="geometry">
            <mxPoint x="40" y="800" as="sourcePoint" />
            <mxPoint x="40" y="400" as="targetPoint" />
          </mxGeometry>
        </mxCell>
        <mxCell id="enXsGFHNMzW8swjhAQXI-52" value="" style="endArrow=none;html=1;rounded=0;" edge="1" parent="1">
          <mxGeometry width="50" height="50" relative="1" as="geometry">
            <mxPoint x="960" y="800" as="sourcePoint" />
            <mxPoint x="960" y="400" as="targetPoint" />
          </mxGeometry>
        </mxCell>
        <mxCell id="enXsGFHNMzW8swjhAQXI-53" value="Операционный уровень" style="text;html=1;align=center;verticalAlign=middle;whiteSpace=wrap;rounded=0;" vertex="1" parent="1">
          <mxGeometry x="70" y="730" width="180" height="60" as="geometry" />
        </mxCell>
        <mxCell id="enXsGFHNMzW8swjhAQXI-58" style="edgeStyle=orthogonalEdgeStyle;rounded=0;orthogonalLoop=1;jettySize=auto;html=1;exitX=0.5;exitY=0;exitDx=0;exitDy=0;entryX=0.5;entryY=1;entryDx=0;entryDy=0;" edge="1" parent="1" source="enXsGFHNMzW8swjhAQXI-54" target="enXsGFHNMzW8swjhAQXI-57">
          <mxGeometry relative="1" as="geometry" />
        </mxCell>
        <mxCell id="enXsGFHNMzW8swjhAQXI-54" value="BP7: Поддержка&lt;div&gt;&lt;br&gt;&lt;/div&gt;" style="rounded=0;whiteSpace=wrap;html=1;" vertex="1" parent="1">
          <mxGeometry x="-220" y="500" width="200" height="60" as="geometry" />
        </mxCell>
        <mxCell id="enXsGFHNMzW8swjhAQXI-67" style="edgeStyle=orthogonalEdgeStyle;rounded=0;orthogonalLoop=1;jettySize=auto;html=1;exitX=0.5;exitY=0;exitDx=0;exitDy=0;entryX=0.5;entryY=1;entryDx=0;entryDy=0;" edge="1" parent="1" source="enXsGFHNMzW8swjhAQXI-57" target="enXsGFHNMzW8swjhAQXI-59">
          <mxGeometry relative="1" as="geometry" />
        </mxCell>
        <mxCell id="enXsGFHNMzW8swjhAQXI-57" value="BP8: Аналитика&lt;div&gt;&lt;br&gt;&lt;/div&gt;" style="rounded=0;whiteSpace=wrap;html=1;" vertex="1" parent="1">
          <mxGeometry x="-220" y="390" width="200" height="60" as="geometry" />
        </mxCell>
        <mxCell id="enXsGFHNMzW8swjhAQXI-68" style="edgeStyle=orthogonalEdgeStyle;rounded=0;orthogonalLoop=1;jettySize=auto;html=1;exitX=0.5;exitY=0;exitDx=0;exitDy=0;entryX=0.5;entryY=1;entryDx=0;entryDy=0;" edge="1" parent="1" source="enXsGFHNMzW8swjhAQXI-59" target="enXsGFHNMzW8swjhAQXI-64">
          <mxGeometry relative="1" as="geometry" />
        </mxCell>
        <mxCell id="enXsGFHNMzW8swjhAQXI-59" value="ИЛИ" style="rhombus;whiteSpace=wrap;html=1;" vertex="1" parent="1">
          <mxGeometry x="-140" y="315" width="40" height="40" as="geometry" />
        </mxCell>
        <mxCell id="enXsGFHNMzW8swjhAQXI-63" value="Ограниченная выручка" style="strokeWidth=2;html=1;shape=mxgraph.flowchart.terminator;whiteSpace=wrap;" vertex="1" parent="1">
          <mxGeometry x="-195" y="50" width="150" height="40" as="geometry" />
        </mxCell>
        <mxCell id="enXsGFHNMzW8swjhAQXI-70" style="edgeStyle=orthogonalEdgeStyle;rounded=0;orthogonalLoop=1;jettySize=auto;html=1;exitX=0.5;exitY=0;exitDx=0;exitDy=0;entryX=0.5;entryY=1;entryDx=0;entryDy=0;" edge="1" parent="1" source="enXsGFHNMzW8swjhAQXI-64" target="enXsGFHNMzW8swjhAQXI-69">
          <mxGeometry relative="1" as="geometry" />
        </mxCell>
        <mxCell id="enXsGFHNMzW8swjhAQXI-64" value="BP9: Партнерства" style="rounded=0;whiteSpace=wrap;html=1;" vertex="1" parent="1">
          <mxGeometry x="-220" y="230" width="200" height="60" as="geometry" />
        </mxCell>
        <mxCell id="enXsGFHNMzW8swjhAQXI-69" value="BP10: Администрирование" style="rounded=0;whiteSpace=wrap;html=1;" vertex="1" parent="1">
          <mxGeometry x="-220" y="130" width="200" height="60" as="geometry" />
        </mxCell>
        <mxCell id="enXsGFHNMzW8swjhAQXI-71" style="edgeStyle=orthogonalEdgeStyle;rounded=0;orthogonalLoop=1;jettySize=auto;html=1;exitX=0.5;exitY=0;exitDx=0;exitDy=0;entryX=0.5;entryY=1;entryDx=0;entryDy=0;entryPerimeter=0;" edge="1" parent="1" source="enXsGFHNMzW8swjhAQXI-69" target="enXsGFHNMzW8swjhAQXI-63">
          <mxGeometry relative="1" as="geometry" />
        </mxCell>
        <mxCell id="enXsGFHNMzW8swjhAQXI-72" value="" style="endArrow=none;html=1;rounded=0;" edge="1" parent="1">
          <mxGeometry width="50" height="50" relative="1" as="geometry">
            <mxPoint y="20" as="sourcePoint" />
            <mxPoint x="-265" y="20" as="targetPoint" />
          </mxGeometry>
        </mxCell>
        <mxCell id="enXsGFHNMzW8swjhAQXI-73" value="" style="endArrow=none;html=1;rounded=0;" edge="1" parent="1">
          <mxGeometry width="50" height="50" relative="1" as="geometry">
            <mxPoint x="-1" y="601" as="sourcePoint" />
            <mxPoint x="-266" y="601" as="targetPoint" />
          </mxGeometry>
        </mxCell>
        <mxCell id="enXsGFHNMzW8swjhAQXI-74" value="" style="endArrow=none;html=1;rounded=0;" edge="1" parent="1">
          <mxGeometry width="50" height="50" relative="1" as="geometry">
            <mxPoint y="600" as="sourcePoint" />
            <mxPoint y="20" as="targetPoint" />
          </mxGeometry>
        </mxCell>
        <mxCell id="enXsGFHNMzW8swjhAQXI-76" value="" style="endArrow=none;html=1;rounded=0;" edge="1" parent="1">
          <mxGeometry width="50" height="50" relative="1" as="geometry">
            <mxPoint x="-267" y="601" as="sourcePoint" />
            <mxPoint x="-267" y="21" as="targetPoint" />
          </mxGeometry>
        </mxCell>
        <mxCell id="enXsGFHNMzW8swjhAQXI-77" value="Поддерживающий&lt;div&gt;&amp;nbsp;уровень&lt;/div&gt;" style="text;html=1;align=center;verticalAlign=middle;whiteSpace=wrap;rounded=0;" vertex="1" parent="1">
          <mxGeometry x="-296" y="551" width="180" height="60" as="geometry" />
        </mxCell>
        <mxCell id="enXsGFHNMzW8swjhAQXI-78" value="" style="endArrow=none;dashed=1;html=1;rounded=0;strokeWidth=5;" edge="1" parent="1">
          <mxGeometry width="50" height="50" relative="1" as="geometry">
            <mxPoint x="-400" y="1169" as="sourcePoint" />
            <mxPoint x="920" y="1169" as="targetPoint" />
          </mxGeometry>
        </mxCell>
        <mxCell id="enXsGFHNMzW8swjhAQXI-79" value="&lt;font style=&quot;font-size: 24px;&quot;&gt;&lt;b&gt;Динамическая генерация мира при помощи нейросетей&lt;/b&gt;&lt;/font&gt;" style="rounded=0;whiteSpace=wrap;html=1;rotation=-90;" vertex="1" parent="1">
          <mxGeometry x="-982.89" y="1384.8" width="1105.8" height="60" as="geometry" />
        </mxCell>
        <mxCell id="enXsGFHNMzW8swjhAQXI-80" value="" style="endArrow=none;dashed=1;html=1;rounded=0;strokeWidth=5;" edge="1" parent="1">
          <mxGeometry width="50" height="50" relative="1" as="geometry">
            <mxPoint x="-396" y="1686" as="sourcePoint" />
            <mxPoint x="924" y="1686" as="targetPoint" />
          </mxGeometry>
        </mxCell>
        <mxCell id="enXsGFHNMzW8swjhAQXI-83" style="edgeStyle=orthogonalEdgeStyle;rounded=0;orthogonalLoop=1;jettySize=auto;html=1;exitX=1;exitY=0.5;exitDx=0;exitDy=0;entryX=0;entryY=0.5;entryDx=0;entryDy=0;" edge="1" parent="1" source="enXsGFHNMzW8swjhAQXI-81" target="enXsGFHNMzW8swjhAQXI-82">
          <mxGeometry relative="1" as="geometry" />
        </mxCell>
        <mxCell id="enXsGFHNMzW8swjhAQXI-81" value="&lt;font style=&quot;font-size: 18px;&quot;&gt;&lt;b&gt;Запуск бизнеса&lt;/b&gt;&lt;/font&gt;" style="ellipse;whiteSpace=wrap;html=1;aspect=fixed;" vertex="1" parent="1">
          <mxGeometry x="-350" y="1000" width="80" height="80" as="geometry" />
        </mxCell>
        <mxCell id="enXsGFHNMzW8swjhAQXI-85" style="edgeStyle=orthogonalEdgeStyle;rounded=0;orthogonalLoop=1;jettySize=auto;html=1;exitX=1;exitY=0.5;exitDx=0;exitDy=0;entryX=0;entryY=0.5;entryDx=0;entryDy=0;" edge="1" parent="1" source="enXsGFHNMzW8swjhAQXI-82" target="enXsGFHNMzW8swjhAQXI-84">
          <mxGeometry relative="1" as="geometry" />
        </mxCell>
        <mxCell id="enXsGFHNMzW8swjhAQXI-82" value="&lt;b&gt;BP1:Стратегическое планирование&lt;/b&gt;" style="rounded=0;whiteSpace=wrap;html=1;" vertex="1" parent="1">
          <mxGeometry x="-210" y="1010" width="200" height="60" as="geometry" />
        </mxCell>
        <mxCell id="enXsGFHNMzW8swjhAQXI-89" style="edgeStyle=orthogonalEdgeStyle;rounded=0;orthogonalLoop=1;jettySize=auto;html=1;exitX=0.5;exitY=1;exitDx=0;exitDy=0;entryX=0.5;entryY=0;entryDx=0;entryDy=0;" edge="1" parent="1" source="enXsGFHNMzW8swjhAQXI-84" target="enXsGFHNMzW8swjhAQXI-88">
          <mxGeometry relative="1" as="geometry" />
        </mxCell>
        <mxCell id="enXsGFHNMzW8swjhAQXI-101" style="edgeStyle=orthogonalEdgeStyle;rounded=0;orthogonalLoop=1;jettySize=auto;html=1;exitX=1;exitY=0.5;exitDx=0;exitDy=0;" edge="1" parent="1" source="enXsGFHNMzW8swjhAQXI-84" target="enXsGFHNMzW8swjhAQXI-100">
          <mxGeometry relative="1" as="geometry" />
        </mxCell>
        <mxCell id="enXsGFHNMzW8swjhAQXI-108" style="edgeStyle=orthogonalEdgeStyle;rounded=0;orthogonalLoop=1;jettySize=auto;html=1;exitX=1;exitY=1;exitDx=0;exitDy=0;entryX=0.5;entryY=0;entryDx=0;entryDy=0;" edge="1" parent="1" source="enXsGFHNMzW8swjhAQXI-84" target="enXsGFHNMzW8swjhAQXI-105">
          <mxGeometry relative="1" as="geometry">
            <Array as="points">
              <mxPoint x="80" y="1140" />
              <mxPoint x="155" y="1140" />
            </Array>
          </mxGeometry>
        </mxCell>
        <mxCell id="enXsGFHNMzW8swjhAQXI-84" value="И" style="rhombus;whiteSpace=wrap;html=1;" vertex="1" parent="1">
          <mxGeometry x="50" y="1020" width="40" height="40" as="geometry" />
        </mxCell>
        <mxCell id="enXsGFHNMzW8swjhAQXI-86" value="SWOT анализ" style="shape=cylinder3;whiteSpace=wrap;html=1;boundedLbl=1;backgroundOutline=1;size=15;" vertex="1" parent="1">
          <mxGeometry x="-155" y="890" width="110" height="80" as="geometry" />
        </mxCell>
        <mxCell id="enXsGFHNMzW8swjhAQXI-87" value="" style="endArrow=block;dashed=1;endFill=0;endSize=12;html=1;rounded=0;" edge="1" parent="1">
          <mxGeometry width="160" relative="1" as="geometry">
            <mxPoint x="-105" y="970" as="sourcePoint" />
            <mxPoint x="-107" y="1011" as="targetPoint" />
          </mxGeometry>
        </mxCell>
        <mxCell id="enXsGFHNMzW8swjhAQXI-91" style="edgeStyle=orthogonalEdgeStyle;rounded=0;orthogonalLoop=1;jettySize=auto;html=1;exitX=0.5;exitY=1;exitDx=0;exitDy=0;entryX=0.5;entryY=0;entryDx=0;entryDy=0;" edge="1" parent="1" source="enXsGFHNMzW8swjhAQXI-88" target="enXsGFHNMzW8swjhAQXI-90">
          <mxGeometry relative="1" as="geometry" />
        </mxCell>
        <mxCell id="enXsGFHNMzW8swjhAQXI-88" value="BP2: Бизнес модель&lt;div&gt;Canvas&lt;/div&gt;" style="rounded=0;whiteSpace=wrap;html=1;" vertex="1" parent="1">
          <mxGeometry x="-340" y="1220" width="200" height="60" as="geometry" />
        </mxCell>
        <mxCell id="enXsGFHNMzW8swjhAQXI-94" style="edgeStyle=orthogonalEdgeStyle;rounded=0;orthogonalLoop=1;jettySize=auto;html=1;exitX=0.5;exitY=1;exitDx=0;exitDy=0;entryX=0.5;entryY=0;entryDx=0;entryDy=0;" edge="1" parent="1" source="enXsGFHNMzW8swjhAQXI-90" target="enXsGFHNMzW8swjhAQXI-92">
          <mxGeometry relative="1" as="geometry" />
        </mxCell>
        <mxCell id="enXsGFHNMzW8swjhAQXI-95" style="edgeStyle=orthogonalEdgeStyle;rounded=0;orthogonalLoop=1;jettySize=auto;html=1;exitX=1;exitY=0.5;exitDx=0;exitDy=0;entryX=0.25;entryY=0;entryDx=0;entryDy=0;" edge="1" parent="1" source="enXsGFHNMzW8swjhAQXI-90" target="enXsGFHNMzW8swjhAQXI-93">
          <mxGeometry relative="1" as="geometry" />
        </mxCell>
        <mxCell id="enXsGFHNMzW8swjhAQXI-90" value="ИЛИ" style="rhombus;whiteSpace=wrap;html=1;" vertex="1" parent="1">
          <mxGeometry x="-260" y="1320" width="40" height="40" as="geometry" />
        </mxCell>
        <mxCell id="enXsGFHNMzW8swjhAQXI-92" value="BP6: Патентование&lt;div&gt;&lt;br&gt;&lt;/div&gt;" style="rounded=0;whiteSpace=wrap;html=1;" vertex="1" parent="1">
          <mxGeometry x="-340" y="1402.5" width="200" height="60" as="geometry" />
        </mxCell>
        <mxCell id="enXsGFHNMzW8swjhAQXI-115" style="edgeStyle=orthogonalEdgeStyle;rounded=0;orthogonalLoop=1;jettySize=auto;html=1;exitX=0.25;exitY=1;exitDx=0;exitDy=0;entryX=0.75;entryY=0;entryDx=0;entryDy=0;" edge="1" parent="1" source="enXsGFHNMzW8swjhAQXI-93" target="enXsGFHNMzW8swjhAQXI-111">
          <mxGeometry relative="1" as="geometry">
            <Array as="points">
              <mxPoint x="-90" y="1463" />
              <mxPoint x="-90" y="1591" />
              <mxPoint x="-190" y="1591" />
            </Array>
          </mxGeometry>
        </mxCell>
        <mxCell id="enXsGFHNMzW8swjhAQXI-93" value="BP4: Продажи" style="rounded=0;whiteSpace=wrap;html=1;" vertex="1" parent="1">
          <mxGeometry x="-100" y="1402.5" width="200" height="60" as="geometry" />
        </mxCell>
        <mxCell id="enXsGFHNMzW8swjhAQXI-96" value="Патент" style="shape=cylinder3;whiteSpace=wrap;html=1;boundedLbl=1;backgroundOutline=1;size=15;" vertex="1" parent="1">
          <mxGeometry x="-305" y="1500" width="110" height="80" as="geometry" />
        </mxCell>
        <mxCell id="enXsGFHNMzW8swjhAQXI-97" value="Контракты" style="shape=cylinder3;whiteSpace=wrap;html=1;boundedLbl=1;backgroundOutline=1;size=15;" vertex="1" parent="1">
          <mxGeometry x="-55" y="1500" width="110" height="80" as="geometry" />
        </mxCell>
        <mxCell id="enXsGFHNMzW8swjhAQXI-98" value="" style="endArrow=block;dashed=1;endFill=0;endSize=12;html=1;rounded=0;entryX=0.5;entryY=1;entryDx=0;entryDy=0;" edge="1" parent="1" target="enXsGFHNMzW8swjhAQXI-93">
          <mxGeometry width="160" relative="1" as="geometry">
            <mxPoint x="2" y="1500" as="sourcePoint" />
            <mxPoint y="1460" as="targetPoint" />
          </mxGeometry>
        </mxCell>
        <mxCell id="enXsGFHNMzW8swjhAQXI-99" value="" style="endArrow=block;dashed=1;endFill=0;endSize=12;html=1;rounded=0;" edge="1" parent="1">
          <mxGeometry width="160" relative="1" as="geometry">
            <mxPoint x="-242" y="1500" as="sourcePoint" />
            <mxPoint x="-244" y="1460" as="targetPoint" />
          </mxGeometry>
        </mxCell>
        <mxCell id="enXsGFHNMzW8swjhAQXI-104" style="edgeStyle=orthogonalEdgeStyle;rounded=0;orthogonalLoop=1;jettySize=auto;html=1;exitX=0.75;exitY=1;exitDx=0;exitDy=0;entryX=1;entryY=0;entryDx=0;entryDy=0;" edge="1" parent="1" source="enXsGFHNMzW8swjhAQXI-100" target="enXsGFHNMzW8swjhAQXI-102">
          <mxGeometry relative="1" as="geometry" />
        </mxCell>
        <mxCell id="enXsGFHNMzW8swjhAQXI-100" value="BP5: Разработка&lt;br&gt;8-12 месяцев" style="rounded=0;whiteSpace=wrap;html=1;" vertex="1" parent="1">
          <mxGeometry x="300" y="1230" width="200" height="60" as="geometry" />
        </mxCell>
        <mxCell id="enXsGFHNMzW8swjhAQXI-102" value="Цикл" style="ellipse;whiteSpace=wrap;html=1;aspect=fixed;" vertex="1" parent="1">
          <mxGeometry x="360" y="1310" width="80" height="80" as="geometry" />
        </mxCell>
        <mxCell id="enXsGFHNMzW8swjhAQXI-103" style="edgeStyle=orthogonalEdgeStyle;rounded=0;orthogonalLoop=1;jettySize=auto;html=1;exitX=0;exitY=0;exitDx=0;exitDy=0;entryX=0.356;entryY=1.004;entryDx=0;entryDy=0;entryPerimeter=0;" edge="1" parent="1" source="enXsGFHNMzW8swjhAQXI-102" target="enXsGFHNMzW8swjhAQXI-100">
          <mxGeometry relative="1" as="geometry" />
        </mxCell>
        <mxCell id="enXsGFHNMzW8swjhAQXI-105" value="BP3: Маркетинг&lt;br&gt;1000 лидов" style="rounded=0;whiteSpace=wrap;html=1;" vertex="1" parent="1">
          <mxGeometry x="55" y="1230" width="200" height="60" as="geometry" />
        </mxCell>
        <mxCell id="enXsGFHNMzW8swjhAQXI-106" value="Лиды" style="shape=cylinder3;whiteSpace=wrap;html=1;boundedLbl=1;backgroundOutline=1;size=15;" vertex="1" parent="1">
          <mxGeometry x="117" y="1328" width="110" height="80" as="geometry" />
        </mxCell>
        <mxCell id="enXsGFHNMzW8swjhAQXI-107" value="" style="endArrow=block;dashed=1;endFill=0;endSize=12;html=1;rounded=0;entryX=0.5;entryY=1;entryDx=0;entryDy=0;" edge="1" parent="1">
          <mxGeometry width="160" relative="1" as="geometry">
            <mxPoint x="167" y="1326" as="sourcePoint" />
            <mxPoint x="165" y="1289" as="targetPoint" />
          </mxGeometry>
        </mxCell>
        <mxCell id="enXsGFHNMzW8swjhAQXI-109" value="&lt;b&gt;&lt;font style=&quot;font-size: 18px;&quot;&gt;Стратегический уровень CEO&lt;/font&gt;&lt;/b&gt;" style="text;html=1;align=center;verticalAlign=middle;whiteSpace=wrap;rounded=0;rotation=-90;" vertex="1" parent="1">
          <mxGeometry x="-530" y="990" width="320" height="60" as="geometry" />
        </mxCell>
        <mxCell id="enXsGFHNMzW8swjhAQXI-110" value="&lt;font style=&quot;font-size: 18px;&quot;&gt;&lt;b&gt;Операционный уровень&lt;/b&gt;&lt;/font&gt;" style="text;html=1;align=center;verticalAlign=middle;whiteSpace=wrap;rounded=0;rotation=-90;" vertex="1" parent="1">
          <mxGeometry x="-610" y="1390" width="480" height="60" as="geometry" />
        </mxCell>
        <mxCell id="enXsGFHNMzW8swjhAQXI-117" style="edgeStyle=orthogonalEdgeStyle;rounded=0;orthogonalLoop=1;jettySize=auto;html=1;exitX=1;exitY=0.5;exitDx=0;exitDy=0;entryX=0;entryY=0.5;entryDx=0;entryDy=0;" edge="1" parent="1" source="enXsGFHNMzW8swjhAQXI-111" target="enXsGFHNMzW8swjhAQXI-112">
          <mxGeometry relative="1" as="geometry" />
        </mxCell>
        <mxCell id="enXsGFHNMzW8swjhAQXI-111" value="BP7: Поддержка&lt;div&gt;&lt;br&gt;&lt;/div&gt;" style="rounded=0;whiteSpace=wrap;html=1;" vertex="1" parent="1">
          <mxGeometry x="-340" y="1760" width="200" height="60" as="geometry" />
        </mxCell>
        <mxCell id="enXsGFHNMzW8swjhAQXI-120" style="edgeStyle=orthogonalEdgeStyle;rounded=0;orthogonalLoop=1;jettySize=auto;html=1;exitX=1;exitY=0.5;exitDx=0;exitDy=0;entryX=0;entryY=0.5;entryDx=0;entryDy=0;" edge="1" parent="1" source="enXsGFHNMzW8swjhAQXI-112" target="enXsGFHNMzW8swjhAQXI-118">
          <mxGeometry relative="1" as="geometry" />
        </mxCell>
        <mxCell id="enXsGFHNMzW8swjhAQXI-112" value="BP8: Аналитика&lt;div&gt;&lt;br&gt;&lt;/div&gt;" style="rounded=0;whiteSpace=wrap;html=1;" vertex="1" parent="1">
          <mxGeometry x="-83" y="1760" width="200" height="60" as="geometry" />
        </mxCell>
        <mxCell id="enXsGFHNMzW8swjhAQXI-113" style="edgeStyle=orthogonalEdgeStyle;rounded=0;orthogonalLoop=1;jettySize=auto;html=1;exitX=0;exitY=1;exitDx=0;exitDy=0;entryX=0.104;entryY=-0.004;entryDx=0;entryDy=0;entryPerimeter=0;" edge="1" parent="1" source="enXsGFHNMzW8swjhAQXI-92" target="enXsGFHNMzW8swjhAQXI-111">
          <mxGeometry relative="1" as="geometry">
            <Array as="points">
              <mxPoint x="-319" y="1463" />
            </Array>
          </mxGeometry>
        </mxCell>
        <mxCell id="enXsGFHNMzW8swjhAQXI-122" style="edgeStyle=orthogonalEdgeStyle;rounded=0;orthogonalLoop=1;jettySize=auto;html=1;exitX=1;exitY=0.5;exitDx=0;exitDy=0;entryX=0;entryY=0.5;entryDx=0;entryDy=0;" edge="1" parent="1" source="enXsGFHNMzW8swjhAQXI-118" target="enXsGFHNMzW8swjhAQXI-121">
          <mxGeometry relative="1" as="geometry" />
        </mxCell>
        <mxCell id="enXsGFHNMzW8swjhAQXI-118" value="ИЛИ" style="rhombus;whiteSpace=wrap;html=1;" vertex="1" parent="1">
          <mxGeometry x="160" y="1770" width="40" height="40" as="geometry" />
        </mxCell>
        <mxCell id="enXsGFHNMzW8swjhAQXI-124" style="edgeStyle=orthogonalEdgeStyle;rounded=0;orthogonalLoop=1;jettySize=auto;html=1;exitX=1;exitY=0.5;exitDx=0;exitDy=0;entryX=0;entryY=0.5;entryDx=0;entryDy=0;" edge="1" parent="1" source="enXsGFHNMzW8swjhAQXI-121" target="enXsGFHNMzW8swjhAQXI-123">
          <mxGeometry relative="1" as="geometry" />
        </mxCell>
        <mxCell id="enXsGFHNMzW8swjhAQXI-121" value="BP9: Партнерства" style="rounded=0;whiteSpace=wrap;html=1;" vertex="1" parent="1">
          <mxGeometry x="240" y="1760" width="200" height="60" as="geometry" />
        </mxCell>
        <mxCell id="enXsGFHNMzW8swjhAQXI-123" value="BP10: Администрирование" style="rounded=0;whiteSpace=wrap;html=1;" vertex="1" parent="1">
          <mxGeometry x="500" y="1760" width="200" height="60" as="geometry" />
        </mxCell>
        <mxCell id="enXsGFHNMzW8swjhAQXI-125" value="Ограниченная выручка" style="strokeWidth=2;html=1;shape=mxgraph.flowchart.terminator;whiteSpace=wrap;" vertex="1" parent="1">
          <mxGeometry x="760" y="1770" width="150" height="40" as="geometry" />
        </mxCell>
        <mxCell id="enXsGFHNMzW8swjhAQXI-126" style="edgeStyle=orthogonalEdgeStyle;rounded=0;orthogonalLoop=1;jettySize=auto;html=1;exitX=1;exitY=0.5;exitDx=0;exitDy=0;entryX=0;entryY=0.5;entryDx=0;entryDy=0;entryPerimeter=0;" edge="1" parent="1" source="enXsGFHNMzW8swjhAQXI-123" target="enXsGFHNMzW8swjhAQXI-125">
          <mxGeometry relative="1" as="geometry" />
        </mxCell>
        <mxCell id="enXsGFHNMzW8swjhAQXI-127" value="&lt;font style=&quot;font-size: 18px;&quot;&gt;&lt;b&gt;Поддерживающий уровень&lt;/b&gt;&lt;/font&gt;" style="text;html=1;align=center;verticalAlign=middle;whiteSpace=wrap;rounded=0;rotation=-90;" vertex="1" parent="1">
          <mxGeometry x="-610" y="1800" width="480" height="60" as="geometry" />
        </mxCell>
      </root>
    </mxGraphModel>
  </diagram>
</mxfile>
